<?xml version="1.0" standalone="no"?>
<!DOCTYPE svg PUBLIC "-//W3C//DTD SVG 20010904//EN"
 "http://www.w3.org/TR/2001/REC-SVG-20010904/DTD/svg10.dtd">
<svg version="1.0" xmlns="http://www.w3.org/2000/svg"
 width="251.000000pt" height="292.000000pt" viewBox="0 0 251.000000 292.000000"
 preserveAspectRatio="xMidYMid meet">

<g transform="translate(0.000000,292.000000) scale(0.100000,-0.100000)"
fill="#000000" stroke="none">
<path d="M2176 2843 c-47 -100 -156 -243 -276 -364 -192 -194 -391 -330 -693
-474 -81 -38 -147 -72 -147 -75 0 -3 21 -12 47 -18 180 -49 295 -159 278 -269
-5 -32 -1 -51 15 -82 27 -55 34 -117 18 -163 -12 -35 -25 -47 -30 -30 -2 4
-27 33 -57 65 -62 65 -148 112 -226 122 -97 12 -225 -22 -341 -90 -45 -27 -52
-29 -29 -10 86 73 244 135 346 135 115 0 225 -66 278 -166 26 -51 27 -36 1 19
-44 93 -144 165 -260 187 -168 32 -436 -22 -647 -129 -78 -40 -156 -90 -118
-76 54 21 180 55 201 55 22 0 20 -5 -28 -67 -116 -154 -189 -367 -226 -663
l-8 -65 -32 55 c-65 110 -63 83 -60 881 l3 724 32 66 c59 120 168 203 298 229
42 8 198 10 515 8 l455 -3 77 -37 c86 -41 156 -104 191 -174 l22 -44 45 39 45
39 -20 38 c-30 58 -132 155 -201 191 -116 62 -130 63 -649 63 -384 0 -482 -3
-534 -15 -176 -42 -323 -182 -378 -360 -17 -56 -18 -104 -14 -795 3 -684 4
-739 22 -795 23 -75 74 -161 143 -243 45 -53 55 -72 60 -115 4 -29 13 -75 20
-102 12 -50 13 -49 19 85 18 401 169 568 607 669 47 11 198 36 335 56 336 48
438 76 552 152 49 32 143 140 143 163 0 4 -33 -5 -72 -20 -76 -29 -178 -61
-178 -56 0 2 30 21 66 42 85 50 206 177 262 277 24 42 46 86 49 98 6 20 1 19
-58 -15 -146 -84 -364 -185 -375 -173 -2 1 23 18 54 37 176 104 317 255 389
419 26 58 73 228 73 264 0 14 -15 0 -50 -46 -28 -36 -81 -91 -119 -122 -67
-54 -225 -155 -243 -155 -5 0 31 39 80 88 141 138 225 269 282 434 35 104 83
348 68 348 -2 0 -12 -17 -22 -37z"/>
<path d="M1865 2092 l-50 -46 43 24 c47 27 66 44 60 59 -1 5 -25 -12 -53 -37z"/>
<path d="M720 2066 c0 -13 36 -94 56 -127 l22 -36 -35 -17 c-49 -23 -97 -61
-127 -101 l-26 -33 58 29 c167 85 443 96 595 24 l48 -23 -21 24 c-29 30 -105
65 -214 98 -94 29 -216 84 -303 136 -29 17 -53 29 -53 26z"/>
<path d="M1865 1739 c-62 -51 -67 -62 -18 -43 56 22 75 40 71 63 -3 20 -7 18
-53 -20z"/>
<path d="M1300 1693 c0 -7 11 -25 25 -40 13 -15 25 -23 25 -16 0 7 -11 25 -25
40 -13 15 -25 23 -25 16z"/>
<path d="M1865 1469 c-27 -23 -52 -43 -55 -46 -3 -3 21 8 53 23 38 19 57 34
57 46 0 10 -1 18 -2 18 -2 -1 -25 -19 -53 -41z"/>
<path d="M1325 1099 c-190 -22 -384 -53 -479 -77 l-69 -18 201 -28 c242 -35
311 -33 404 11 34 16 88 53 118 81 l55 51 -35 -1 c-19 0 -107 -9 -195 -19z"/>
<path d="M870 894 c175 -108 240 -124 360 -85 l55 18 -135 43 c-146 46 -289
84 -360 95 -43 6 -39 3 80 -71z"/>
<path d="M1136 721 c-24 -26 -17 -70 15 -94 24 -17 30 -18 55 -6 64 31 50 119
-20 119 -20 0 -40 -8 -50 -19z"/>
<path d="M2377 722 c-46 -50 13 -114 74 -82 13 7 19 21 19 45 0 52 -59 75 -93
37z m67 2 c10 -4 16 -18 16 -40 0 -28 -4 -35 -27 -40 -32 -8 -57 6 -61 35 -6
40 29 62 72 45z"/>
<path d="M2401 688 c0 -18 3 -27 6 -20 3 9 9 10 17 3 8 -7 11 -3 10 17 0 17
-7 28 -17 30 -13 3 -17 -4 -16 -30z"/>
<path d="M1570 640 c0 -49 -1 -90 -3 -90 -1 0 -20 9 -42 20 -74 38 -156 21
-212 -43 -89 -101 -63 -269 52 -334 51 -29 118 -30 163 -3 39 24 42 24 42 5 0
-11 12 -15 50 -15 l50 0 0 275 0 275 -50 0 -50 0 0 -90z m-25 -180 c25 -26 30
-38 30 -80 0 -40 -5 -54 -29 -79 -37 -38 -83 -48 -125 -27 -81 42 -80 175 2
212 43 19 86 10 122 -26z"/>
<path d="M530 450 l0 -270 50 0 50 0 0 270 0 270 -50 0 -50 0 0 -270z"/>
<path d="M785 574 c-76 -42 -105 -94 -105 -192 0 -58 4 -75 29 -114 51 -80
153 -110 236 -68 21 11 40 18 42 16 10 -10 -12 -59 -34 -76 -31 -24 -105 -26
-143 -5 -31 17 -130 20 -130 3 0 -22 49 -75 87 -93 26 -13 62 -19 113 -19 94
-1 152 27 184 89 19 36 21 60 24 253 l3 212 -50 0 c-45 0 -51 -2 -51 -21 0
-20 0 -20 -32 2 -41 30 -130 36 -173 13z m139 -88 c45 -19 66 -52 66 -104 0
-37 -6 -50 -35 -79 -32 -32 -39 -35 -78 -30 -112 15 -136 168 -33 213 39 17
40 17 80 0z"/>
<path d="M1842 579 c-18 -5 -50 -27 -71 -48 -93 -93 -75 -263 36 -332 32 -20
51 -24 120 -24 74 0 85 3 124 30 23 17 44 35 46 42 3 7 -13 21 -34 31 -37 19
-39 19 -73 1 -64 -35 -144 -18 -168 36 -7 14 -12 28 -12 30 0 3 72 5 160 5
l160 0 0 38 c0 58 -42 136 -89 167 -46 31 -141 42 -199 24z m145 -95 c12 -8
27 -23 33 -34 10 -19 8 -20 -95 -20 -58 0 -105 3 -105 8 0 20 34 53 63 61 36
10 72 5 104 -15z"/>
<path d="M2255 565 c-23 -22 -25 -23 -25 -5 0 17 -7 20 -45 20 l-45 0 0 -200
0 -200 49 0 49 0 4 139 c3 120 6 142 22 160 11 12 29 21 41 21 16 0 26 10 37
39 9 22 13 42 10 45 -15 16 -75 4 -97 -19z"/>
<path d="M1130 380 l0 -200 50 0 50 0 0 200 0 200 -50 0 -50 0 0 -200z"/>
<path d="M1140 96 c0 -2 11 -6 25 -8 13 -3 22 -1 19 3 -5 9 -44 13 -44 5z"/>
<path d="M1290 72 c0 -17 4 -33 8 -36 9 -5 7 52 -2 61 -3 4 -6 -8 -6 -25z"/>
<path d="M1441 63 c1 -21 3 -30 6 -21 2 9 12 19 21 21 15 4 15 5 0 6 -10 0
-18 5 -18 10 0 5 8 12 18 14 13 4 11 5 -5 6 -20 1 -23 -4 -22 -36z"/>
<path d="M1828 93 c6 -2 18 -2 25 0 6 3 1 5 -13 5 -14 0 -19 -2 -12 -5z"/>
<path d="M1325 80 c-3 -6 1 -7 9 -4 18 7 21 14 7 14 -6 0 -13 -4 -16 -10z"/>
<path d="M1562 60 c0 -19 2 -27 5 -17 2 9 2 25 0 35 -3 9 -5 1 -5 -18z"/>
<path d="M1655 80 c-3 -6 1 -7 9 -4 18 7 21 14 7 14 -6 0 -13 -4 -16 -10z"/>
<path d="M1705 80 c-3 -6 1 -7 9 -4 18 7 21 14 7 14 -6 0 -13 -4 -16 -10z"/>
<path d="M1940 86 c0 -2 7 -7 16 -10 8 -3 12 -2 9 4 -6 10 -25 14 -25 6z"/>
<path d="M2152 60 c0 -19 2 -27 5 -17 2 9 2 25 0 35 -3 9 -5 1 -5 -18z"/>
<path d="M2265 80 c-3 -6 1 -7 9 -4 18 7 21 14 7 14 -6 0 -13 -4 -16 -10z"/>
<path d="M2042 55 c0 -16 2 -22 5 -12 2 9 2 23 0 30 -3 6 -5 -1 -5 -18z"/>
<path d="M1148 63 c6 -2 18 -2 25 0 6 3 1 5 -13 5 -14 0 -19 -2 -12 -5z"/>
<path d="M1200 59 c0 -5 9 -9 20 -9 11 0 20 2 20 4 0 2 -9 6 -20 9 -11 3 -20
1 -20 -4z"/>
<path d="M1525 60 c-19 -8 -19 -9 3 -9 12 -1 22 4 22 9 0 6 -1 10 -2 9 -2 0
-12 -4 -23 -9z"/>
<path d="M1828 63 c6 -2 18 -2 25 0 6 3 1 5 -13 5 -14 0 -19 -2 -12 -5z"/>
<path d="M2005 60 c-19 -8 -19 -9 3 -9 12 -1 22 4 22 9 0 6 -1 10 -2 9 -2 0
-12 -4 -23 -9z"/>
<path d="M2115 60 c-19 -8 -19 -9 3 -9 12 -1 22 4 22 9 0 6 -1 10 -2 9 -2 0
-12 -4 -23 -9z"/>
<path d="M1328 53 c6 -2 18 -2 25 0 6 3 1 5 -13 5 -14 0 -19 -2 -12 -5z"/>
<path d="M1658 53 c6 -2 18 -2 25 0 6 3 1 5 -13 5 -14 0 -19 -2 -12 -5z"/>
<path d="M2268 53 c6 -2 18 -2 25 0 6 3 1 5 -13 5 -14 0 -19 -2 -12 -5z"/>
<path d="M1720 40 c-9 -6 -10 -10 -3 -10 6 0 15 5 18 10 8 12 4 12 -15 0z"/>
<path d="M1950 40 c-9 -6 -10 -10 -3 -10 6 0 15 5 18 10 8 12 4 12 -15 0z"/>
<path d="M1148 33 c6 -2 18 -2 25 0 6 3 1 5 -13 5 -14 0 -19 -2 -12 -5z"/>
<path d="M1833 33 c9 -2 23 -2 30 0 6 3 -1 5 -18 5 -16 0 -22 -2 -12 -5z"/>
</g>
</svg>
